<svg xmlns="http://www.w3.org/2000/svg" viewBox="0 0 200 480">
  <!-- Body silhouette -->
  <!-- Head -->
  <ellipse fill="BODY_FILL_COLOR" cx="100" cy="26" rx="21" ry="23"/>
  <!-- Neck -->
  <rect fill="BODY_FILL_COLOR" x="91" y="47" width="18" height="17" rx="5"/>
  <!-- Torso -->
  <path fill="BODY_FILL_COLOR" d="M40,62 L160,62 C168,70 170,85 170,100 L170,205 C170,230 158,252 140,262 L110,268 L90,268 C62,256 30,232 30,205 L30,100 C30,85 32,70 40,62 Z"/>
  <!-- Left upper arm -->
  <path fill="BODY_FILL_COLOR" d="M34,68 L16,74 C8,92 6,142 10,188 L26,192 C22,148 22,100 30,80 Z"/>
  <!-- Right upper arm -->
  <path fill="BODY_FILL_COLOR" d="M166,68 L184,74 C192,92 194,142 190,188 L174,192 C178,148 178,100 170,80 Z"/>
  <!-- Left forearm -->
  <path fill="BODY_FILL_COLOR" d="M10,188 C6,218 4,262 8,298 L22,300 C18,264 18,220 24,192 Z"/>
  <!-- Right forearm -->
  <path fill="BODY_FILL_COLOR" d="M190,188 C194,218 196,262 192,298 L178,300 C182,264 182,220 176,192 Z"/>
  <!-- Left thigh -->
  <path fill="BODY_FILL_COLOR" d="M30,268 C18,274 14,288 14,304 L14,374 L80,374 L80,268 Z"/>
  <!-- Right thigh -->
  <path fill="BODY_FILL_COLOR" d="M170,268 C182,274 186,288 186,304 L186,374 L120,374 L120,268 Z"/>
  <!-- Left calf -->
  <path fill="BODY_FILL_COLOR" d="M14,374 C12,416 14,452 18,472 L78,472 L80,374 Z"/>
  <!-- Right calf -->
  <path fill="BODY_FILL_COLOR" d="M186,374 C188,416 186,452 182,472 L122,472 L120,374 Z"/>

  <!-- MUSCLE GROUPS - FRONT -->
  <!-- Chest (pectorals) -->
  <path fill="CHEST_COLOR" opacity="0.85" d="M50,70 C48,100 62,140 100,150 C138,140 152,100 150,70 C140,62 120,59 100,61 C80,59 60,62 50,70 Z"/>
  <!-- Front Shoulders (anterior deltoid) -->
  <ellipse fill="FRONT_SHOULDERS_COLOR" opacity="0.85" cx="30" cy="90" rx="16" ry="24"/>
  <ellipse fill="FRONT_SHOULDERS_COLOR" opacity="0.85" cx="170" cy="90" rx="16" ry="24"/>
  <!-- Biceps -->
  <ellipse fill="BICEPS_COLOR" opacity="0.85" cx="16" cy="143" rx="9" ry="26"/>
  <ellipse fill="BICEPS_COLOR" opacity="0.85" cx="184" cy="143" rx="9" ry="26"/>
  <!-- Forearms -->
  <ellipse fill="FOREARMS_COLOR" opacity="0.85" cx="13" cy="248" rx="7" ry="32"/>
  <ellipse fill="FOREARMS_COLOR" opacity="0.85" cx="187" cy="248" rx="7" ry="32"/>
  <!-- Abs (6-pack grid) -->
  <rect fill="ABS_COLOR" opacity="0.85" x="76" y="158" width="21" height="17" rx="4"/>
  <rect fill="ABS_COLOR" opacity="0.85" x="103" y="158" width="21" height="17" rx="4"/>
  <rect fill="ABS_COLOR" opacity="0.85" x="76" y="179" width="21" height="17" rx="4"/>
  <rect fill="ABS_COLOR" opacity="0.85" x="103" y="179" width="21" height="17" rx="4"/>
  <rect fill="ABS_COLOR" opacity="0.85" x="76" y="200" width="21" height="17" rx="4"/>
  <rect fill="ABS_COLOR" opacity="0.85" x="103" y="200" width="21" height="17" rx="4"/>
  <!-- Quads (quadriceps) -->
  <ellipse fill="QUADS_COLOR" opacity="0.85" cx="47" cy="320" rx="24" ry="48"/>
  <ellipse fill="QUADS_COLOR" opacity="0.85" cx="153" cy="320" rx="24" ry="48"/>
  <!-- Calves -->
  <ellipse fill="CALVES_COLOR" opacity="0.85" cx="44" cy="422" rx="18" ry="28"/>
  <ellipse fill="CALVES_COLOR" opacity="0.85" cx="156" cy="422" rx="18" ry="28"/>
</svg>
